<?xml version="1.0" standalone="no"?>
<!DOCTYPE svg PUBLIC "-//W3C//DTD SVG 20010904//EN"
 "http://www.w3.org/TR/2001/REC-SVG-20010904/DTD/svg10.dtd">
<svg version="1.0" xmlns="http://www.w3.org/2000/svg"
 width="512.000000pt" height="512.000000pt" viewBox="0 0 512.000000 512.000000"
 preserveAspectRatio="xMidYMid meet">
<metadata>
Created by potrace 1.16, written by Peter Selinger 2001-2019
</metadata>
<g transform="translate(0.000000,512.000000) scale(0.100000,-0.100000)"
fill="#000000" stroke="none">
<path d="M2364 3770 c-133 -11 -292 -42 -381 -75 -85 -32 -192 -104 -243 -163
-56 -65 -125 -206 -145 -297 -22 -97 -16 -285 10 -358 19 -54 30 -59 15 -6
-52 181 -19 425 79 576 136 210 386 303 816 303 273 0 457 -34 632 -115 140
-66 201 -130 287 -302 48 -97 48 -100 -7 -175 l-21 -28 -142 0 -141 0 -18 48
c-10 26 -28 68 -41 93 l-23 46 76 -13 c42 -8 80 -19 85 -26 5 -9 8 -7 8 8 0
31 -50 103 -117 165 -62 59 -195 134 -220 125 -8 -3 -12 -2 -9 3 9 13 -113 40
-236 53 -137 14 -307 -1 -432 -37 -144 -42 -213 -86 -300 -191 -216 -261 -234
-587 -44 -771 82 -79 218 -127 459 -163 394 -58 499 -88 592 -169 154 -136
126 -437 -57 -608 -75 -71 -127 -98 -227 -119 -219 -47 -448 48 -523 216 -25
54 -53 176 -71 303 l-6 47 -252 0 c-245 0 -253 -1 -318 -25 -51 -20 -66 -30
-63 -43 66 -308 124 -469 198 -550 11 -13 21 -33 21 -45 0 -30 90 -74 282
-137 345 -113 652 -144 953 -95 182 30 306 77 445 170 235 156 369 401 368
670 -2 340 -181 558 -558 679 -137 44 -233 64 -453 96 -290 41 -349 66 -407
171 -27 49 -30 63 -30 144 0 75 5 99 26 145 31 67 78 116 138 143 39 18 66 21
171 22 115 0 130 -2 180 -26 98 -47 165 -136 226 -301 l29 -78 297 0 297 0
-30 73 c-93 223 -183 370 -261 428 -191 141 -554 216 -914 189z m383 -164 l58
-12 3 -41 3 -41 -58 14 c-76 18 -244 18 -313 -1 -162 -43 -314 -165 -386 -310
-37 -75 -39 -84 -39 -174 0 -75 4 -104 19 -130 24 -45 103 -129 138 -147 21
-11 16 -2 -21 34 -66 66 -94 140 -95 252 0 57 5 102 18 137 22 65 89 158 146
203 l43 34 -26 -44 c-72 -124 -74 -293 -3 -388 60 -82 140 -114 353 -143 220
-29 350 -55 478 -96 240 -77 405 -188 478 -322 l27 -49 -36 -22 c-60 -38 -73
-57 -63 -93 16 -57 10 -180 -12 -253 -67 -220 -250 -458 -441 -577 -55 -34
-67 -46 -62 -62 3 -11 9 -34 13 -51 l8 -32 -81 -16 c-136 -27 -295 -39 -409
-31 -102 7 -107 8 -103 28 6 32 37 101 48 108 5 3 -29 9 -75 12 -96 8 -233 45
-310 83 -82 42 -167 135 -215 234 -67 141 -70 131 44 128 107 -3 99 2 133 -88
46 -121 187 -263 299 -303 156 -56 381 -35 542 49 215 112 336 312 371 611 20
165 -16 278 -122 384 -108 108 -229 149 -572 194 -109 14 -223 34 -254 44 -31
11 -61 17 -67 15 -6 -2 -22 -20 -36 -40 -13 -20 -34 -43 -47 -51 -13 -8 -20
-20 -16 -26 13 -21 -61 30 -117 80 -100 91 -159 199 -174 323 -7 56 8 198 22
212 5 5 38 11 73 14 l65 6 34 62 c64 116 199 234 310 271 104 34 285 39 427
11z m-737 -1521 c0 -32 31 -200 46 -252 9 -31 -19 -31 -50 0 -18 18 -27 47
-42 135 l-18 112 -197 0 c-108 0 -218 3 -245 7 l-49 6 30 13 c22 10 99 13 278
14 l247 0 0 -35z m-259 -25 l176 0 6 -42 c3 -24 4 -44 2 -46 -2 -2 -70 -5
-151 -7 -202 -6 -204 -6 -204 -58 1 -128 40 -262 100 -347 l21 -29 -42 -12
c-28 -9 -46 -10 -57 -3 -26 16 -78 118 -112 219 -28 84 -80 293 -80 324 0 11
15 13 83 8 45 -4 161 -7 258 -7z"/>
</g>
</svg>